<?xml version="1.0" standalone="no"?>
<!DOCTYPE svg PUBLIC "-//W3C//DTD SVG 20010904//EN"
 "http://www.w3.org/TR/2001/REC-SVG-20010904/DTD/svg10.dtd">
<svg version="1.0" xmlns="http://www.w3.org/2000/svg"
 width="700.000000pt" height="700.000000pt" viewBox="0 0 700.000000 700.000000"
 preserveAspectRatio="xMidYMid meet">
<metadata>
Created by potrace 1.11, written by Peter Selinger 2001-2013
</metadata>
<g transform="translate(0.000000,700.000000) scale(0.100000,-0.100000)"
fill="#000000" stroke="none">
<path d="M1900 6557 c-169 -51 -297 -151 -390 -306 -30 -50 -60 -99 -65 -108
-6 -10 -31 -54 -56 -98 -44 -76 -372 -637 -410 -700 -10 -16 -24 -41 -32 -55
-7 -14 -108 -187 -224 -385 -116 -198 -220 -376 -231 -395 -11 -19 -72 -125
-137 -235 -318 -542 -312 -532 -335 -639 -11 -52 -14 -201 -5 -251 20 -106 36
-143 153 -340 36 -60 73 -123 82 -140 9 -16 87 -149 172 -295 438 -748 1035
-1772 1064 -1822 106 -187 233 -292 417 -345 l78 -23 1507 1 c1229 0 1518 2
1567 13 194 44 315 134 421 314 134 228 468 800 486 831 11 19 153 262 315
540 163 278 304 520 314 537 9 17 36 62 58 99 23 37 41 68 41 69 0 2 56 99
125 217 72 122 135 242 146 279 40 123 32 299 -18 410 -17 38 -159 283 -686
1185 -38 66 -78 133 -87 150 -10 16 -108 185 -220 375 -111 190 -216 370 -233
400 -28 50 -73 125 -105 175 -6 11 -15 27 -19 35 -4 8 -34 60 -66 115 -33 55
-65 109 -71 120 -67 123 -217 233 -378 275 -70 18 -130 19 -1588 19 l-1515 0
-75 -22z m1918 -696 c9 -1 12 -64 12 -280 l0 -279 68 -12 c87 -15 166 -37 219
-61 24 -10 46 -19 50 -19 27 0 255 -140 318 -195 96 -84 165 -151 165 -160 0
-5 -14 -26 -31 -45 -115 -130 -148 -168 -180 -204 -20 -23 -71 -80 -112 -128
l-76 -87 -73 58 c-207 162 -322 210 -518 217 -168 5 -263 -22 -339 -95 -60
-59 -91 -145 -92 -255 -1 -80 23 -138 86 -205 79 -84 161 -133 530 -314 248
-122 346 -179 470 -276 214 -167 326 -345 372 -591 12 -61 9 -290 -3 -365 -39
-226 -148 -442 -291 -577 -66 -61 -185 -141 -264 -177 -40 -18 -81 -37 -89
-41 -8 -3 -53 -17 -100 -30 -47 -12 -91 -24 -97 -26 -10 -3 -13 -71 -13 -297
l0 -294 -272 1 -273 1 -1 273 c0 150 -5 276 -10 281 -5 4 -52 15 -104 24 -90
15 -322 78 -358 96 -9 5 -59 27 -110 50 -119 52 -232 119 -327 195 -71 55 -75
60 -62 80 8 12 83 129 167 261 84 132 158 245 164 251 8 9 38 -6 116 -58 184
-121 354 -198 513 -231 84 -18 265 -19 344 -3 192 41 292 164 294 360 0 86
-18 142 -71 212 -75 99 -178 166 -531 346 -359 183 -486 265 -625 404 -142
142 -211 277 -249 489 -6 36 -7 229 -1 265 3 14 7 41 10 60 6 33 10 50 34 140
68 246 274 476 535 594 65 30 168 65 240 82 15 3 27 13 28 23 0 9 1 134 1 278
1 228 3 262 16 265 14 3 490 2 520 -1z"/>
</g>
</svg>
